<svg width="129" height="42" viewBox="0 0 129 42" fill="none" xmlns="http://www.w3.org/2000/svg">
<path d="M5 9C5 6.79086 6.79086 5 9 5H33C35.2091 5 37 6.79086 37 9V33C37 35.2091 35.2091 37 33 37H9C6.79086 37 5 35.2091 5 33V9Z" fill="#532F00"/>
<path d="M8 16.84V14H31.76V18.96L26.54 18.24V16.84H16.2V25.16H26.54V23.26H22.32V20.42H31.76V28H10.98V16.84H8Z" fill="#FFAE00"/>
<path d="M44 29.88V12.408L59.24 16.896L74.456 12.408V29.88H66.152V26.472H68.192V18.264L62.36 19.92V29.88H56.096V19.92L50.264 18.264V26.472H52.304V29.88H44Z" fill="#532F00"/>
<path d="M76.85 20.28V17.16H85.85V29.88H79.85V20.28H76.85ZM79.85 15.48V12.12H85.85V15.48H79.85Z" fill="#532F00"/>
<path d="M90.1662 29.88V17.16H94.4622L95.6862 18.36L96.8862 17.16H105.766L111.646 20.04V29.88H105.646V21L104.206 20.28H96.1662V29.88H90.1662Z" fill="#532F00"/>
<path d="M113.577 20.28V17.16H122.577V29.88H116.577V20.28H113.577ZM116.577 15.48V12.12H122.577V15.48H116.577Z" fill="#532F00"/>
</svg>
