<svg xmlns="http://www.w3.org/2000/svg" xmlns:xlink="http://www.w3.org/1999/xlink" contentStyleType="text/css" data-diagram-type="DESCRIPTION" height="690px" preserveAspectRatio="none" style="width:1021px;height:690px;background:#FFFFFF;" version="1.1" viewBox="0 0 1021 690" width="1021px" zoomAndPan="magnify"><defs/><g><!--cluster User use cases--><g class="cluster" data-entity="User use cases" data-source-line="17" data-uid="ent0010" id="cluster_User use cases"><path d="M141.23,275 L259.7808,275 A3.75,3.75 0 0 1 262.2808,277.5 L269.2808,297.2969 L415.27,297.2969 A2.5,2.5 0 0 1 417.77,299.7969 L417.77,680.5 A2.5,2.5 0 0 1 415.27,683 L141.23,683 A2.5,2.5 0 0 1 138.73,680.5 L138.73,277.5 A2.5,2.5 0 0 1 141.23,275" fill="none" style="stroke:#000000;stroke-width:1.5;"/><line style="stroke:#000000;stroke-width:1.5;" x1="138.73" x2="269.2808" y1="297.2969" y2="297.2969"/><text fill="#000000" font-family="sans-serif" font-size="14" font-weight="bold" lengthAdjust="spacing" textLength="117.5508" x="142.73" y="289.9951">User use cases</text></g><!--cluster Admin use cases--><g class="cluster" data-entity="Admin use cases" data-source-line="25" data-uid="ent0016" id="cluster_Admin use cases"><path d="M163.51,6 L296.1702,6 A3.75,3.75 0 0 1 298.6702,8.5 L305.6702,28.2969 L392.99,28.2969 A2.5,2.5 0 0 1 395.49,30.7969 L395.49,248.5 A2.5,2.5 0 0 1 392.99,251 L163.51,251 A2.5,2.5 0 0 1 161.01,248.5 L161.01,8.5 A2.5,2.5 0 0 1 163.51,6" fill="none" style="stroke:#000000;stroke-width:1.5;"/><line style="stroke:#000000;stroke-width:1.5;" x1="161.01" x2="305.6702" y1="28.2969" y2="28.2969"/><text fill="#000000" font-family="sans-serif" font-size="14" font-weight="bold" lengthAdjust="spacing" textLength="131.6602" x="165.01" y="20.9951">Admin use cases</text></g><!--entity userUpdate--><g class="entity" data-entity="userUpdate" data-source-line="18" data-uid="ent0011" id="entity_userUpdate"><ellipse cx="278.2506" cy="640.0041" fill="#F1F1F1" rx="123.5206" ry="27.1041" style="stroke:#181818;stroke-width:0.5;"/><text fill="#000000" font-family="sans-serif" font-size="14" lengthAdjust="spacing" textLength="226.8506" x="164.8253" y="644.6526">&#1054;&#1085;&#1086;&#1074;&#1080;&#1090;&#1080; &#1110;&#1085;&#1092;&#1086;&#1088;&#1084;&#1072;&#1094;&#1110;&#1102; &#1074; &#1072;&#1082;&#1072;&#1091;&#1085;&#1090;&#1110;</text></g><!--entity play--><g class="entity" data-entity="play" data-source-line="19" data-uid="ent0012" id="entity_play"><ellipse cx="278.2471" cy="397.0014" fill="#F1F1F1" rx="68.6071" ry="16.1214" style="stroke:#181818;stroke-width:0.5;"/><text fill="#000000" font-family="sans-serif" font-size="14" lengthAdjust="spacing" textLength="102.8467" x="226.8237" y="401.6498">&#1055;&#1086;&#1075;&#1088;&#1072;&#1090;&#1080; &#1074; &#1075;&#1088;&#1091;</text></g><!--entity leaderboard--><g class="entity" data-entity="leaderboard" data-source-line="20" data-uid="ent0013" id="entity_leaderboard"><ellipse cx="278.2545" cy="470.0009" fill="#F1F1F1" rx="96.6545" ry="21.7309" style="stroke:#181818;stroke-width:0.5;"/><text fill="#000000" font-family="sans-serif" font-size="14" lengthAdjust="spacing" textLength="168.6563" x="193.9263" y="474.6493">&#1055;&#1086;&#1076;&#1080;&#1074;&#1080;&#1090;&#1080;&#1089;&#1100; &#1083;&#1110;&#1076;&#1077;&#1088;&#1073;&#1086;&#1088;&#1076;</text></g><!--entity makeReview--><g class="entity" data-entity="makeReview" data-source-line="21" data-uid="ent0014" id="entity_makeReview"><ellipse cx="278.2457" cy="327.9991" fill="#F1F1F1" rx="76.0457" ry="17.6091" style="stroke:#181818;stroke-width:0.5;"/><text fill="#000000" font-family="sans-serif" font-size="14" lengthAdjust="spacing" textLength="121.2559" x="217.6178" y="332.6476">&#1053;&#1072;&#1087;&#1080;&#1089;&#1072;&#1090;&#1080; &#1074;&#1110;&#1076;&#1075;&#1091;&#1082;</text></g><!--entity signup--><g class="entity" data-entity="signup" data-source-line="22" data-uid="ent0015" id="entity_signup"><ellipse cx="278.251" cy="552.0031" fill="#F1F1F1" rx="93.761" ry="25.6831" style="stroke:#181818;stroke-width:0.5;"/><text fill="#000000" font-family="sans-serif" font-size="14" lengthAdjust="spacing" textLength="125.9658" x="213.043" y="549.0223">&#1047;&#1072;&#1088;&#1077;&#1108;&#1089;&#1090;&#1088;&#1091;&#1074;&#1072;&#1090;&#1080;&#1089;&#1103;</text><text fill="#000000" font-family="sans-serif" font-size="14" lengthAdjust="spacing" textLength="117.373" x="221.7896" y="565.3192">/ &#1042;&#1110;&#1081;&#1090;&#1080; &#1074; &#1072;&#1082;&#1072;&#1091;&#1085;&#1090;</text></g><!--entity ban--><g class="entity" data-entity="ban" data-source-line="26" data-uid="ent0017" id="entity_ban"><ellipse cx="278.2471" cy="211.9974" fill="#F1F1F1" rx="101.2371" ry="22.6474" style="stroke:#181818;stroke-width:0.5;"/><text fill="#000000" font-family="sans-serif" font-size="14" lengthAdjust="spacing" textLength="178.7803" x="188.8569" y="216.6459">&#1041;&#1083;&#1086;&#1082;&#1091;&#1074;&#1072;&#1090;&#1080; &#1082;&#1086;&#1088;&#1080;&#1089;&#1090;&#1091;&#1074;&#1072;&#1095;&#1110;&#1074;</text></g><!--entity deleteReview--><g class="entity" data-entity="deleteReview" data-source-line="27" data-uid="ent0018" id="entity_deleteReview"><ellipse cx="278.2494" cy="59.0019" fill="#F1F1F1" rx="80.1594" ry="18.4319" style="stroke:#181818;stroke-width:0.5;"/><text fill="#000000" font-family="sans-serif" font-size="14" lengthAdjust="spacing" textLength="131.0518" x="212.7235" y="63.6503">&#1042;&#1080;&#1076;&#1072;&#1083;&#1103;&#1090;&#1080; &#1074;&#1110;&#1076;&#1075;&#1091;&#1082;&#1080;</text></g><!--entity deleteResults--><g class="entity" data-entity="deleteResults" data-source-line="28" data-uid="ent0019" id="entity_deleteResults"><ellipse cx="278.249" cy="132.9958" fill="#F1F1F1" rx="92.979" ry="20.9958" style="stroke:#181818;stroke-width:0.5;"/><text fill="#000000" font-family="sans-serif" font-size="14" lengthAdjust="spacing" textLength="160.4531" x="198.0225" y="137.6442">&#1042;&#1080;&#1076;&#1072;&#1083;&#1103;&#1090;&#1080; &#1088;&#1077;&#1079;&#1091;&#1083;&#1100;&#1090;&#1072;&#1090;&#1080;</text></g><!--entity user--><g class="entity" data-entity="user" data-source-line="4" data-uid="ent0002" id="entity_user"><ellipse cx="48.8647" cy="411.35" fill="#F1F1F1" rx="8" ry="8" style="stroke:#181818;stroke-width:0.5;"/><path d="M48.8647,419.35 L48.8647,446.35 M35.8647,427.35 L61.8647,427.35 M48.8647,446.35 L35.8647,461.35 M48.8647,446.35 L61.8647,461.35" fill="none" style="stroke:#181818;stroke-width:0.5;"/><text fill="#000000" font-family="sans-serif" font-size="14" lengthAdjust="spacing" textLength="85.7295" x="6" y="475.8451">&#1050;&#1086;&#1088;&#1080;&#1089;&#1090;&#1091;&#1074;&#1072;&#1095;</text></g><!--entity admin--><g class="entity" data-entity="admin" data-source-line="5" data-uid="ent0003" id="entity_admin"><ellipse cx="48.8607" cy="143.35" fill="#F1F1F1" rx="8" ry="8" style="stroke:#181818;stroke-width:0.5;"/><path d="M48.8607,151.35 L48.8607,178.35 M35.8607,159.35 L61.8607,159.35 M48.8607,178.35 L35.8607,193.35 M48.8607,178.35 L61.8607,193.35" fill="none" style="stroke:#181818;stroke-width:0.5;"/><text fill="#000000" font-family="sans-serif" font-size="14" lengthAdjust="spacing" textLength="42.8613" x="27.43" y="207.8451">&#1040;&#1076;&#1084;&#1110;&#1085;</text></g><!--entity auth--><g class="entity" data-entity="auth" data-source-line="10" data-uid="ent0005" id="entity_auth"><ellipse cx="967.7243" cy="374.35" fill="#F1F1F1" rx="8" ry="8" style="stroke:#181818;stroke-width:0.5;"/><path d="M967.7243,382.35 L967.7243,409.35 M954.7243,390.35 L980.7243,390.35 M967.7243,409.35 L954.7243,424.35 M967.7243,409.35 L980.7243,424.35" fill="none" style="stroke:#181818;stroke-width:0.5;"/><text fill="#000000" font-family="sans-serif" font-size="14" lengthAdjust="spacing" textLength="93.7686" x="920.84" y="438.8451">Authorization</text></g><!--entity results--><g class="entity" data-entity="results" data-source-line="11" data-uid="ent0006" id="entity_results"><ellipse cx="662.7991" cy="267.35" fill="#F1F1F1" rx="8" ry="8" style="stroke:#181818;stroke-width:0.5;"/><path d="M662.7991,275.35 L662.7991,302.35 M649.7991,283.35 L675.7991,283.35 M662.7991,302.35 L649.7991,317.35 M662.7991,302.35 L675.7991,317.35" fill="none" style="stroke:#181818;stroke-width:0.5;"/><text fill="#000000" font-family="sans-serif" font-size="14" lengthAdjust="spacing" textLength="100.0781" x="612.76" y="331.8451">Result Service</text></g><!--entity userController--><g class="entity" data-entity="userController" data-source-line="12" data-uid="ent0007" id="entity_userController"><ellipse cx="662.8008" cy="489.35" fill="#F1F1F1" rx="8" ry="8" style="stroke:#181818;stroke-width:0.5;"/><path d="M662.8008,497.35 L662.8008,524.35 M649.8008,505.35 L675.8008,505.35 M662.8008,524.35 L649.8008,539.35 M662.8008,524.35 L675.8008,539.35" fill="none" style="stroke:#181818;stroke-width:0.5;"/><text fill="#000000" font-family="sans-serif" font-size="14" lengthAdjust="spacing" textLength="88.1016" x="618.75" y="553.8451">User Service</text></g><!--entity reviews--><g class="entity" data-entity="reviews" data-source-line="13" data-uid="ent0008" id="entity_reviews"><ellipse cx="662.8022" cy="156.35" fill="#F1F1F1" rx="8" ry="8" style="stroke:#181818;stroke-width:0.5;"/><path d="M662.8022,164.35 L662.8022,191.35 M649.8022,172.35 L675.8022,172.35 M662.8022,191.35 L649.8022,206.35 M662.8022,191.35 L675.8022,206.35" fill="none" style="stroke:#181818;stroke-width:0.5;"/><text fill="#000000" font-family="sans-serif" font-size="14" lengthAdjust="spacing" textLength="114.0645" x="605.77" y="220.8451">Reviews Service</text></g><!--entity email--><g class="entity" data-entity="email" data-source-line="15" data-uid="ent0009" id="entity_email"><ellipse cx="662.7987" cy="378.35" fill="#F1F1F1" rx="8" ry="8" style="stroke:#181818;stroke-width:0.5;"/><path d="M662.7987,386.35 L662.7987,413.35 M649.7987,394.35 L675.7987,394.35 M662.7987,413.35 L649.7987,428.35 M662.7987,413.35 L675.7987,428.35" fill="none" style="stroke:#181818;stroke-width:0.5;"/><text fill="#000000" font-family="sans-serif" font-size="14" lengthAdjust="spacing" textLength="89.2773" x="618.16" y="442.8451">Email Sevice</text></g><!--link admin to user--><g class="link" data-entity-1="admin" data-entity-2="user" data-source-line="7" data-uid="lnk4" id="link_admin_user"><path d="M48.86,211.55 C48.86,275.21 48.86,320.87 48.86,384.53" fill="none" id="admin-to-user" style="stroke:#181818;stroke-width:1;"/><polygon fill="none" points="48.86,402.53,54.86,384.53,42.86,384.53,48.86,402.53" style="stroke:#181818;stroke-width:1;"/></g><!--link user to leaderboard--><g class="link" data-entity-1="user" data-entity-2="leaderboard" data-source-line="32" data-uid="lnk20" id="link_user_leaderboard"><path d="M92.1,446.39 C120.49,450.01 158.86,454.9 193.32,459.3" fill="none" id="user-leaderboard" style="stroke:#181818;stroke-width:1;"/></g><!--link user to signup--><g class="link" data-entity-1="user" data-entity-2="signup" data-source-line="33" data-uid="lnk21" id="link_user_signup"><path d="M89.01,479.5 C101.55,490.24 116.02,501.11 130.73,509 C152.92,520.9 178.82,529.89 202.62,536.5" fill="none" id="user-signup" style="stroke:#181818;stroke-width:1;"/></g><!--link user to userUpdate--><g class="link" data-entity-1="user" data-entity-2="userUpdate" data-source-line="34" data-uid="lnk22" id="link_user_userUpdate"><path d="M60.65,479.37 C72.38,514.31 94.48,564.92 130.73,595 C145.58,607.32 163.77,616.27 182.21,622.77" fill="none" id="user-userUpdate" style="stroke:#181818;stroke-width:1;"/></g><!--link user to play--><g class="link" data-entity-1="user" data-entity-2="play" data-source-line="35" data-uid="lnk23" id="link_user_play"><path d="M92.1,432.83 C129.35,425.62 183.8,415.08 224.02,407.3" fill="none" id="user-play" style="stroke:#181818;stroke-width:1;"/></g><!--link user to makeReview--><g class="link" data-entity-1="user" data-entity-2="makeReview" data-source-line="36" data-uid="lnk24" id="link_user_makeReview"><path d="M81.55,402.67 C95.29,388.29 112.42,373.02 130.73,363 C155.05,349.69 184.35,341.4 210.33,336.25" fill="none" id="user-makeReview" style="stroke:#181818;stroke-width:1;"/></g><!--link admin to ban--><g class="link" data-entity-1="admin" data-entity-2="ban" data-source-line="38" data-uid="lnk25" id="link_admin_ban"><path d="M70.44,176.53 C98.81,181.4 151.55,190.44 196.67,198.18" fill="none" id="admin-ban" style="stroke:#181818;stroke-width:1;"/></g><!--link admin to deleteReview--><g class="link" data-entity-1="admin" data-entity-2="deleteReview" data-source-line="39" data-uid="lnk26" id="link_admin_deleteReview"><path d="M70.55,146.85 C85.5,129.65 107.16,108 130.73,95 C154.35,81.97 182.69,73.59 208.11,68.24" fill="none" id="admin-deleteReview" style="stroke:#181818;stroke-width:1;"/></g><!--link admin to deleteResults--><g class="link" data-entity-1="admin" data-entity-2="deleteResults" data-source-line="40" data-uid="lnk27" id="link_admin_deleteResults"><path d="M70.44,169.38 C100.29,164.13 157.1,154.14 203.64,145.95" fill="none" id="admin-deleteResults" style="stroke:#181818;stroke-width:1;"/></g><!--link signup to auth--><g class="link" data-entity-1="signup" data-entity-2="auth" data-source-line="43" data-uid="lnk28" id="link_signup_auth"><path d="M358.88,565.51 C447.45,578.38 594.59,593.28 719.84,575 C798.31,563.55 827.62,571.89 890.84,524 C918.44,503.09 938.6,468.98 951.17,442.47" fill="none" id="signup-auth" style="stroke:#181818;stroke-width:1;"/></g><!--link results to auth--><g class="link" data-entity-1="results" data-entity-2="auth" data-source-line="44" data-uid="lnk29" id="link_results_auth"><path d="M713.15,314.43 C770.48,334.68 864.36,367.84 920.38,387.63" fill="none" id="results-auth" style="stroke:#181818;stroke-width:1;stroke-dasharray:7.0,7.0;"/><text fill="#000000" font-family="sans-serif" font-size="13" lengthAdjust="spacing" textLength="24.6289" x="808.34" y="325.0669">JWT</text></g><!--link userController to auth--><g class="link" data-entity-1="userController" data-entity-2="auth" data-source-line="45" data-uid="lnk30" id="link_userController_auth"><path d="M707.29,519.54 C754.92,518.4 832.32,511.41 890.84,481 C908.66,471.74 924.84,456.77 937.63,442.48" fill="none" id="userController-auth" style="stroke:#181818;stroke-width:1;stroke-dasharray:7.0,7.0;"/><text fill="#000000" font-family="sans-serif" font-size="13" lengthAdjust="spacing" textLength="24.6289" x="808.34" y="477.0669">JWT</text></g><!--link reviews to auth--><g class="link" data-entity-1="reviews" data-entity-2="auth" data-source-line="46" data-uid="lnk31" id="link_reviews_auth"><path d="M720.21,207.05 C768.86,227.04 839.21,260.48 890.84,304 C911.5,321.42 929.95,345.43 943.48,365.55" fill="none" id="reviews-auth" style="stroke:#181818;stroke-width:1;stroke-dasharray:7.0,7.0;"/><text fill="#000000" font-family="sans-serif" font-size="13" lengthAdjust="spacing" textLength="24.6289" x="808.34" y="216.0669">JWT</text></g><!--link email to auth--><g class="link" data-entity-1="email" data-entity-2="auth" data-source-line="49" data-uid="lnk32" id="link_email_auth"><path d="M707.85,407.42 C764.54,406.67 862.6,405.37 920.38,404.61" fill="none" id="email-auth" style="stroke:#181818;stroke-width:1;stroke-dasharray:7.0,7.0;"/><text fill="#000000" font-family="sans-serif" font-size="13" lengthAdjust="spacing" textLength="24.6289" x="808.34" y="401.0669">JWT</text></g><!--reverse link email to auth--><g class="link" data-entity-1="email" data-entity-2="auth" data-source-line="50" data-uid="lnk33" id="link_email_auth"><path d="M713.1941,434.0365 C726.3641,439.9465 735.62,443 749.84,446 C811.15,458.94 830.16,461.67 890.84,446 C900.89,443.4 911.04,439.15 920.5,434.33" fill="none" id="email-backto-auth" style="stroke:#181818;stroke-width:1;"/><polygon fill="#181818" points="707.72,431.58,714.2935,438.9141,712.2817,433.6271,717.5688,431.6153,707.72,431.58" style="stroke:#181818;stroke-width:1;"/><text fill="#000000" font-family="sans-serif" font-size="13" lengthAdjust="spacing" textLength="69.7861" x="783.4606" y="427.0669">&#1053;&#1072;&#1076;&#1110;&#1089;&#1083;&#1072;&#1090;&#1080;</text><text fill="#000000" font-family="sans-serif" font-size="13" lengthAdjust="spacing" textLength="135.0273" x="754.9723" y="442.1997">&#1082;&#1086;&#1076; &#1087;&#1110;&#1076;&#1090;&#1074;&#1077;&#1088;&#1076;&#1078;&#1077;&#1085;&#1085;&#1103;</text></g><!--link signup to email--><g class="link" data-entity-1="signup" data-entity-2="email" data-source-line="51" data-uid="lnk34" id="link_signup_email"><path d="M346.53,534.07 C371.61,526.91 400.2,518.19 425.77,509 C444.75,502.18 554.88,454.52 617.78,427.17" fill="none" id="signup-email" style="stroke:#181818;stroke-width:1;"/></g><!--link userUpdate to userController--><g class="link" data-entity-1="userUpdate" data-entity-2="userController" data-source-line="56" data-uid="lnk35" id="link_userUpdate_userController"><path d="M351.97,617.88 C375.54,610.65 401.78,602.55 425.77,595 C493.12,573.82 571.05,548.58 618.36,533.18" fill="none" id="userUpdate-userController" style="stroke:#181818;stroke-width:1;"/></g><!--link ban to userController--><g class="link" data-entity-1="ban" data-entity-2="userController" data-source-line="57" data-uid="lnk36" id="link_ban_userController"><path d="M346.23,229.11 C428.8,250.8 560.18,287.46 575.77,305 C623.55,358.75 571.89,400.57 605.77,464 C609.17,470.37 613.57,476.46 618.4,482.12" fill="none" id="ban-userController" style="stroke:#181818;stroke-width:1;"/></g><!--link signup to userController--><g class="link" data-entity-1="signup" data-entity-2="userController" data-source-line="58" data-uid="lnk37" id="link_signup_userController"><path d="M367.98,544.35 C446.55,537.57 557.91,527.96 618.48,522.74" fill="none" id="signup-userController" style="stroke:#181818;stroke-width:1;"/></g><!--link play to results--><g class="link" data-entity-1="play" data-entity-2="results" data-source-line="60" data-uid="lnk38" id="link_play_results"><path d="M329.57,385.91 C357.9,379.51 393.89,371.15 425.77,363 C490.7,346.4 565.08,325.24 612.7,311.42" fill="none" id="play-results" style="stroke:#181818;stroke-width:1;"/><text fill="#000000" font-family="sans-serif" font-size="13" lengthAdjust="spacing" textLength="136.1001" x="436.77" y="320.0669">&#1079;&#1073;&#1077;&#1088;&#1077;&#1075;&#1090;&#1080; &#1088;&#1077;&#1079;&#1091;&#1083;&#1100;&#1090;&#1072;&#1090;</text></g><!--link leaderboard to results--><g class="link" data-entity-1="leaderboard" data-entity-2="results" data-source-line="61" data-uid="lnk39" id="link_leaderboard_results"><path d="M362.79,459.09 C425.27,447.96 510.76,426.23 575.77,385 C592.51,374.38 592.03,366.28 605.77,352 C610.97,346.6 616.52,340.98 622.03,335.48" fill="none" id="leaderboard-results" style="stroke:#181818;stroke-width:1;"/><text fill="#000000" font-family="sans-serif" font-size="13" lengthAdjust="spacing" textLength="140.5244" x="434.77" y="381.0669">&#1086;&#1090;&#1088;&#1080;&#1084;&#1072;&#1090;&#1080; &#1083;&#1110;&#1076;&#1077;&#1088;&#1073;&#1086;&#1088;&#1076;</text></g><!--link deleteResults to results--><g class="link" data-entity-1="deleteResults" data-entity-2="results" data-source-line="62" data-uid="lnk40" id="link_deleteResults_results"><path d="M346.65,147.54 C371.88,153.86 400.53,162.1 425.77,172 C492.9,198.32 565.57,238.78 612.27,266.5" fill="none" id="deleteResults-results" style="stroke:#181818;stroke-width:1;"/></g><!--link makeReview to reviews--><g class="link" data-entity-1="makeReview" data-entity-2="reviews" data-source-line="64" data-uid="lnk41" id="link_makeReview_reviews"><path d="M319.83,312.94 C388.38,287.49 527.26,235.94 605.3,206.97" fill="none" id="makeReview-reviews" style="stroke:#181818;stroke-width:1;"/></g><!--link deleteReview to reviews--><g class="link" data-entity-1="deleteReview" data-entity-2="reviews" data-source-line="65" data-uid="lnk42" id="link_deleteReview_reviews"><path d="M337.83,71.6 C364.83,77.86 397.16,86.01 425.77,95 C488.2,114.62 557.92,142.23 605.29,161.88" fill="none" id="deleteReview-reviews" style="stroke:#181818;stroke-width:1;"/></g><!--SRC=[dLJBRjD05DtFLuoo2IoSx2jKgK9iM1OgDjrCuo6nwaTaEqMyf3H1iAa8LAX8IC0lXCIb8Q_-mfq_uiuTsx6T8hKaKg8vTyvzdZlrJXntevrci-iAF-vvRgCLUCrU9AsMm1_R4UrGUCoLpsCU1pnqsfsOsqueMx4J-8pLu1kiLHzcwbGDr10cC5OVQbn477s4QFu42IpL1Qm85BRd88l-kFLcrzn2Dtkzk1E4pYkXtPghYB3QlenwRioVoF34QKaoX0H5h7Q0t995EtiO-74OkAuElYzF7FaYgh09mv2FFE6uQCjDKWECTKNhMBGbD_xH9zUjY6hyDUFukGS_O0Lhh7Ic1Z3ZkZRrZfgmnEBVgmlraSE4mnZcU1wYTQ0kxcVv7NHj4SlKqq_qCqNYc3nf4fxKa2xZG5uMhYKmoq9YgyyuB31m0fV8_aN14sAvKjWoF0f4QAVaxvZ8jIRbKOWunSpcHF74iJITIXbVyMOVFN-XcVRJgPh08txeyoQ7StJo9y-wK2gvZ9ost-kojuLcxj78R-ZcPrXWUVDD58xEjYI5uIRa-aZuAV4SEv9Ww8KQRHK6CxfiIrV6vUAgB5qfN25deSuGe0nAN2CsBAL-sm_JS-QMLHf6XgMjoOu5IMGG3Jux58QJROr5FSWFfHgtK9Fz7N8t-MaNj83fil56WyvyXpz-zfIL5wrYJ3UiWZ96wrL13VOWZOOWoJN17Jf5MHWveE2q8Y3XSAqdZE24T9_0RvpT2bKtojDEbxXExXhcbCOocBMRWuU- -Vvlp7erw9q4OgQUQQ3mRE5qRq0tSwaOcDQBnhDHOHEly4su96LF_o5oLj1cXRpMIuzRiipMSUkbOILr5UYCRVHgOFFO5ZLQn6_TiRy0]--></g></svg>